# xmcd
#
# Track frame offsets: 
#        150
#        12109
#        24788
#        39214
#        57940
#        66858
#        80079
#        88450
#        96968
#        107856
#
# Disc length: 1575 seconds
#
# Revision: 0
# Processed by: cddbd v1.5.2PL0 Copyright (c) Steve Scherf et al.
# Submitted via: ExactAudioCopy v1.0b3
#
DISCID=7906250a
DTITLE=Various Artist - Country Christmas Spirit
DYEAR=2004
DGENRE=Country
TTITLE0=Hark! The Herald Angels Sing (Jack Greene)
TTITLE1=White Christmas (Boxcar Willie)
TTITLE2=Silver Bells (Jeannie C. Riley)
TTITLE3=Have Yourself A Merry Little Christmas (Eddy Raven)
TTITLE4=Rockin' Around The Crhistmas Tree (Donna Fargo)
TTITLE5=Please Come Home For Christmas (Joe Stampley)
TTITLE6=Santa's On His Way (Kitty Wells)
TTITLE7=Frosty The Snowman (Gene Autry)
TTITLE8=Rudolph The Red Nosed Reindeer (Skeeter Davis)
TTITLE9=Winter Wonderland (Lacy J. Dalton)
EXTD=
EXTT0=
EXTT1=
EXTT2=
EXTT3=
EXTT4=
EXTT5=
EXTT6=
EXTT7=
EXTT8=
EXTT9=
PLAYORDER=
